<?xml version="1.0" encoding="UTF-8"?><svg id="a" xmlns="http://www.w3.org/2000/svg" viewBox="0 0 704 176"><defs><style>.b{fill:#fff;}.c,.d,.e{fill:none;stroke:#000;stroke-miterlimit:10;}.d{stroke-linecap:round;stroke-width:2px;}.e{stroke-width:3px;}</style></defs><g><rect class="b" x="2" y="2" width="196" height="172" rx="6.06" ry="6.06"/><path d="M191.95,4c2.23,0,4.05,1.82,4.05,4.05V167.95c0,2.23-1.82,4.05-4.05,4.05H8.05c-2.23,0-4.05-1.82-4.05-4.05V8.05c0-2.23,1.82-4.05,4.05-4.05H191.95M191.95,0H8.05C3.61,0,0,3.61,0,8.05V167.95c0,4.44,3.61,8.05,8.05,8.05H191.95c4.44,0,8.05-3.61,8.05-8.05V8.05C200,3.61,196.39,0,191.95,0h0Z"/></g><g><rect class="b" x="242" y="2" width="460" height="172" rx="6.06" ry="6.06"/><path d="M695.95,4c2.23,0,4.05,1.82,4.05,4.05V167.95c0,2.23-1.82,4.05-4.05,4.05H248.05c-2.23,0-4.05-1.82-4.05-4.05V8.05c0-2.23,1.82-4.05,4.05-4.05h447.89m0-4H248.05c-4.44,0-8.05,3.61-8.05,8.05V167.95c0,4.44,3.61,8.05,8.05,8.05h447.89c4.44,0,8.05-3.61,8.05-8.05V8.05c0-4.44-3.61-8.05-8.05-8.05h0Z"/></g><line class="e" x1="4" y1="28" x2="196" y2="28"/><line class="e" x1="244" y1="28" x2="700" y2="28"/><line class="c" x1="4" y1="52" x2="196" y2="52"/><line class="c" x1="4" y1="76" x2="196" y2="76"/><line class="c" x1="4" y1="100" x2="196" y2="100"/><line class="c" x1="4" y1="124" x2="196" y2="124"/><line class="c" x1="4" y1="148" x2="196" y2="148"/><line class="d" x1="100" y1="172" x2="100" y2="28"/><path d="M55.68,70h-1.69l-1.98-2.81-1.96,2.81h-1.65l2.85-3.69-2.72-3.66h1.63l1.93,2.83,1.9-2.83h1.57l-2.76,3.69,2.88,3.66Z"/><g><path d="M14.19,39.95h-2.1v-1.39h3.93v6.05h2.15v1.39h-6.34v-1.39h2.36v-4.66Zm1.98-3.43c0,.16-.03,.31-.09,.45s-.14,.27-.25,.37-.23,.19-.37,.25-.3,.09-.46,.09-.32-.03-.46-.09c-.14-.06-.27-.14-.37-.25s-.19-.23-.25-.37-.09-.29-.09-.45,.03-.31,.09-.45,.14-.27,.25-.37,.23-.19,.37-.25c.14-.06,.3-.09,.46-.09s.32,.03,.46,.09,.26,.15,.37,.25,.19,.23,.25,.37,.09,.29,.09,.45Z"/><path d="M24.71,46l-.04-1.1c-.16,.19-.32,.36-.48,.52s-.34,.29-.53,.4c-.19,.11-.39,.2-.61,.26-.22,.06-.46,.09-.72,.09-.44,0-.83-.09-1.17-.26s-.63-.43-.86-.75-.41-.72-.53-1.18-.18-.98-.18-1.55c0-.68,.1-1.28,.29-1.78s.46-.92,.8-1.25c.34-.33,.75-.57,1.22-.73s.98-.24,1.53-.24c.19,0,.37,.01,.56,.04,.19,.02,.35,.06,.5,.1v-2.91h1.79v10.35h-1.55Zm-3.27-3.66c0,.41,.03,.76,.08,1.05,.06,.29,.14,.53,.25,.71,.11,.19,.25,.32,.41,.41s.34,.13,.55,.13c.3,0,.59-.12,.86-.37s.56-.58,.87-1v-3.25c-.14-.05-.32-.1-.52-.13s-.42-.05-.63-.05c-.29,0-.55,.06-.78,.18s-.43,.28-.59,.5-.29,.48-.38,.79c-.09,.31-.13,.66-.13,1.04Z"/><path d="M34.76,41.71c0,.12,0,.28-.01,.48,0,.2-.02,.38-.03,.55h-4.89c0,.33,.05,.62,.15,.86,.1,.25,.24,.46,.42,.63,.18,.17,.4,.3,.66,.38,.26,.09,.54,.13,.85,.13,.36,0,.75-.03,1.16-.08s.84-.15,1.29-.27v1.42c-.19,.05-.4,.1-.62,.15s-.45,.08-.69,.12-.47,.06-.71,.08-.47,.03-.7,.03c-.57,0-1.07-.08-1.52-.24s-.83-.4-1.14-.71c-.31-.32-.55-.7-.72-1.17s-.25-1-.25-1.61,.08-1.16,.25-1.65c.17-.5,.4-.92,.7-1.27,.3-.35,.67-.63,1.1-.82,.43-.19,.91-.29,1.45-.29s.99,.08,1.4,.25c.41,.16,.74,.39,1.02,.69s.48,.64,.62,1.05,.21,.85,.21,1.33Zm-1.82-.26c0-.29-.03-.55-.11-.77s-.18-.4-.32-.54-.29-.25-.47-.31-.37-.1-.57-.1c-.45,0-.82,.15-1.11,.45-.29,.3-.46,.72-.51,1.27h3.09Z"/><path d="M40.96,46v-4.85c0-.82-.3-1.22-.91-1.22-.3,0-.59,.12-.87,.37-.28,.24-.57,.58-.88,1v4.71h-1.79v-7.44h1.55l.04,1.1c.15-.19,.31-.36,.47-.52,.16-.16,.34-.29,.53-.4,.19-.11,.4-.19,.62-.25s.47-.09,.74-.09c.38,0,.71,.06,1,.19,.28,.12,.52,.3,.71,.53,.19,.23,.33,.5,.43,.82,.1,.32,.14,.68,.14,1.07v5h-1.79Z"/><path d="M50.91,45.93c-.32,.07-.65,.13-.97,.18s-.64,.07-.93,.07c-.49,0-.91-.05-1.26-.15-.35-.1-.65-.26-.88-.47-.23-.21-.4-.48-.51-.8-.11-.32-.17-.71-.17-1.16v-3.63h-2v-1.39h2v-1.9l1.83-.48v2.38h2.89v1.39h-2.89v3.5c0,.42,.1,.75,.29,.96,.2,.22,.52,.33,.98,.33,.29,0,.58-.02,.86-.07s.53-.1,.76-.17v1.43Z"/><path d="M55.42,39.95h-2.1v-1.39h3.93v6.05h2.15v1.39h-6.34v-1.39h2.36v-4.66Zm1.98-3.43c0,.16-.03,.31-.09,.45s-.14,.27-.25,.37-.23,.19-.37,.25-.3,.09-.46,.09-.32-.03-.46-.09c-.14-.06-.27-.14-.37-.25s-.19-.23-.25-.37-.09-.29-.09-.45,.03-.31,.09-.45,.14-.27,.25-.37,.23-.19,.37-.25c.14-.06,.3-.09,.46-.09s.32,.03,.46,.09,.26,.15,.37,.25,.19,.23,.25,.37,.09,.29,.09,.45Z"/><path d="M67.94,37.17c-.21-.07-.47-.13-.77-.17-.3-.05-.6-.07-.9-.07-.21,0-.41,.03-.59,.08s-.34,.15-.47,.27-.24,.28-.31,.47c-.08,.19-.11,.42-.11,.68v1.2h2.92v1.39h-2.92v4.98h-1.8v-4.98h-2.16v-1.39h2.16v-1.13c0-.53,.08-.98,.23-1.36,.15-.38,.37-.69,.65-.93,.28-.24,.62-.42,1.01-.53s.84-.17,1.33-.17c.32,0,.63,.02,.92,.06,.29,.04,.56,.09,.81,.15v1.44Z"/><path d="M71.91,39.95h-2.1v-1.39h3.93v6.05h2.15v1.39h-6.34v-1.39h2.36v-4.66Zm1.98-3.43c0,.16-.03,.31-.09,.45s-.14,.27-.25,.37-.23,.19-.37,.25-.3,.09-.46,.09-.32-.03-.46-.09c-.14-.06-.27-.14-.37-.25s-.19-.23-.25-.37-.09-.29-.09-.45,.03-.31,.09-.45,.14-.27,.25-.37,.23-.19,.37-.25c.14-.06,.3-.09,.46-.09s.32,.03,.46,.09,.26,.15,.37,.25,.19,.23,.25,.37,.09,.29,.09,.45Z"/><path d="M84.24,41.71c0,.12,0,.28-.01,.48,0,.2-.02,.38-.03,.55h-4.89c0,.33,.05,.62,.15,.86,.1,.25,.24,.46,.42,.63,.18,.17,.4,.3,.66,.38,.26,.09,.54,.13,.85,.13,.36,0,.75-.03,1.16-.08s.84-.15,1.29-.27v1.42c-.19,.05-.4,.1-.62,.15s-.45,.08-.69,.12-.47,.06-.71,.08-.47,.03-.7,.03c-.57,0-1.07-.08-1.52-.24s-.83-.4-1.14-.71c-.31-.32-.55-.7-.72-1.17s-.25-1-.25-1.61,.08-1.16,.25-1.65c.17-.5,.4-.92,.7-1.27,.3-.35,.67-.63,1.1-.82,.43-.19,.91-.29,1.45-.29s.99,.08,1.4,.25c.41,.16,.74,.39,1.02,.69s.48,.64,.62,1.05,.21,.85,.21,1.33Zm-1.82-.26c0-.29-.03-.55-.11-.77s-.18-.4-.32-.54-.29-.25-.47-.31-.37-.1-.57-.1c-.45,0-.82,.15-1.11,.45-.29,.3-.46,.72-.51,1.27h3.09Z"/><path d="M90.8,41.45c0-.28,0-.52-.04-.71-.04-.2-.09-.36-.18-.48-.08-.13-.18-.22-.3-.28s-.25-.09-.4-.09c-.26,0-.54,.11-.82,.33-.28,.22-.59,.57-.93,1.07v4.71h-1.83v-7.44h1.62l.07,1.08c.12-.19,.26-.36,.41-.51,.15-.15,.32-.28,.51-.39,.19-.11,.4-.19,.63-.25s.48-.09,.75-.09c.38,0,.71,.06,1,.19s.54,.32,.73,.57c.2,.25,.34,.57,.44,.96,.1,.38,.14,.83,.12,1.33h-1.79Z"/></g><g><path d="M132.56,46h-2.06l-2.95-7.44h1.99l1.55,4.22,.46,1.36,.45-1.3,1.56-4.28h1.92l-2.92,7.44Z"/><path d="M141.31,46l-.04-.97c-.16,.17-.32,.32-.49,.46-.17,.14-.36,.26-.56,.36s-.43,.18-.67,.24c-.24,.06-.51,.08-.79,.08-.38,0-.72-.06-1-.17s-.53-.27-.73-.47-.34-.44-.44-.73-.15-.6-.15-.94,.07-.68,.22-.97,.38-.55,.68-.77c.3-.21,.69-.38,1.14-.51,.46-.12,.99-.18,1.61-.18h.97v-.45c0-.19-.03-.36-.08-.52-.05-.15-.14-.28-.26-.39-.12-.11-.27-.19-.47-.25s-.42-.09-.7-.09c-.44,0-.87,.05-1.3,.15s-.84,.24-1.24,.42v-1.43c.36-.14,.77-.26,1.23-.35,.47-.09,.95-.14,1.45-.14,.55,0,1.03,.05,1.42,.16,.4,.11,.72,.26,.98,.47,.26,.21,.45,.47,.57,.79,.12,.32,.18,.68,.18,1.1v5.08h-1.53Zm-.26-3.29h-1.09c-.3,0-.56,.03-.77,.09s-.38,.14-.51,.24-.23,.22-.29,.36-.09,.28-.09,.43c0,.3,.1,.53,.29,.69,.2,.16,.46,.24,.8,.24,.25,0,.51-.09,.78-.27s.56-.44,.89-.78v-1Z"/><path d="M147.3,37.04h-2.1v-1.39h3.93v8.96h2.15v1.39h-6.34v-1.39h2.36v-7.57Z"/><path d="M154.91,38.56v4.85c0,.41,.08,.71,.23,.92,.15,.21,.38,.31,.69,.31s.58-.12,.86-.37c.28-.25,.57-.58,.88-1v-4.71h1.79v7.44h-1.55l-.04-1.1c-.16,.19-.31,.36-.48,.52s-.34,.29-.52,.4c-.19,.11-.39,.2-.62,.26-.22,.06-.47,.09-.74,.09-.38,0-.71-.06-1-.19-.29-.12-.52-.3-.71-.53s-.33-.5-.43-.82c-.1-.32-.14-.68-.14-1.07v-5h1.79Z"/><path d="M167.87,41.71c0,.12,0,.28-.01,.48,0,.2-.02,.38-.03,.55h-4.89c0,.33,.05,.62,.15,.86,.1,.25,.24,.46,.42,.63,.18,.17,.4,.3,.66,.38,.26,.09,.54,.13,.85,.13,.36,0,.75-.03,1.16-.08s.84-.15,1.29-.27v1.42c-.19,.05-.4,.1-.62,.15s-.45,.08-.69,.12-.47,.06-.71,.08-.47,.03-.7,.03c-.57,0-1.07-.08-1.52-.24s-.83-.4-1.14-.71c-.31-.32-.55-.7-.72-1.17s-.25-1-.25-1.61,.08-1.16,.25-1.65c.17-.5,.4-.92,.7-1.27,.3-.35,.67-.63,1.1-.82,.43-.19,.91-.29,1.45-.29s.99,.08,1.4,.25c.41,.16,.74,.39,1.02,.69s.48,.64,.62,1.05,.21,.85,.21,1.33Zm-1.82-.26c0-.29-.03-.55-.11-.77s-.18-.4-.32-.54-.29-.25-.47-.31-.37-.1-.57-.1c-.45,0-.82,.15-1.11,.45-.29,.3-.46,.72-.51,1.27h3.09Z"/></g><g><path d="M147.06,70h-6.01v-1.19h2.46v-6.99l-2.29,1.25-.47-1.08,3.05-1.6h1.13v8.43h2.14v1.19Z"/><path d="M155.6,65.22c0,.73-.07,1.4-.22,2s-.37,1.12-.67,1.55c-.3,.43-.67,.77-1.11,1-.44,.24-.96,.36-1.56,.36-.51,0-.98-.1-1.4-.29-.42-.19-.78-.49-1.08-.89s-.53-.91-.69-1.53-.24-1.35-.24-2.2c0-.73,.07-1.4,.22-2.01,.15-.61,.37-1.12,.67-1.56,.3-.43,.67-.77,1.11-1,.44-.24,.96-.35,1.55-.35,.51,0,.98,.1,1.4,.29s.78,.49,1.08,.89c.3,.4,.53,.91,.69,1.53s.24,1.35,.24,2.2Zm-5.67-.04c0,.15,0,.3,0,.45,0,.15,.01,.3,.03,.44l4.05-3c-.07-.25-.17-.48-.28-.68s-.25-.38-.4-.53-.33-.27-.53-.35-.42-.12-.67-.12c-.33,0-.63,.08-.9,.24-.27,.16-.5,.4-.69,.72-.19,.32-.34,.72-.44,1.19-.1,.47-.15,1.02-.15,1.64Zm4.38,.09c0-.17,0-.33-.02-.49-.01-.16-.03-.32-.04-.48l-4.05,3.01c.07,.25,.17,.49,.28,.7s.25,.4,.41,.55c.16,.15,.34,.27,.54,.36,.2,.09,.43,.13,.69,.13,.33,0,.63-.08,.9-.24,.27-.16,.5-.4,.69-.72s.34-.71,.44-1.18,.15-1.02,.15-1.64Z"/></g><path d="M55.59,86.65l-2.5,6.58c-.26,.67-.53,1.25-.8,1.73s-.58,.88-.9,1.19c-.33,.31-.69,.54-1.08,.68s-.83,.22-1.31,.22c-.13,0-.24,0-.34,0s-.21-.01-.34-.02v-1.16c.11,.01,.22,.03,.35,.04s.26,.02,.4,.02c.23,0,.45-.03,.66-.1s.39-.18,.58-.33c.18-.15,.35-.35,.52-.6s.33-.54,.48-.89l-2.94-7.35h1.45l1.86,4.86,.37,1.14,.42-1.17,1.72-4.83h1.4Z"/><g><path d="M26.81,111.7h-2.18v-1.05h3.46v6.29h2.19v1.06h-5.9v-1.06h2.42v-5.24Zm.45-4.14c.14,0,.27,.03,.4,.08,.12,.05,.23,.12,.32,.22,.09,.09,.16,.2,.21,.32,.05,.12,.08,.25,.08,.39s-.03,.27-.08,.39c-.05,.12-.12,.23-.21,.32-.09,.09-.2,.16-.32,.22-.12,.05-.25,.08-.4,.08s-.27-.03-.4-.08c-.12-.05-.23-.12-.32-.22s-.16-.2-.21-.32c-.05-.12-.08-.25-.08-.39s.03-.27,.08-.39c.05-.12,.12-.23,.21-.32s.2-.16,.32-.22c.12-.05,.25-.08,.4-.08Z"/><path d="M38.38,115.99c0,.26-.04,.49-.13,.7s-.21,.39-.36,.55c-.15,.16-.33,.29-.53,.41s-.41,.21-.64,.28c-.23,.07-.46,.13-.7,.16s-.47,.05-.7,.05c-.5,0-.96-.02-1.37-.07-.42-.04-.83-.11-1.23-.21v-1.17c.43,.12,.86,.21,1.28,.28s.85,.1,1.27,.1c.61,0,1.06-.08,1.35-.25s.44-.4,.44-.71c0-.13-.02-.25-.07-.36-.05-.1-.13-.21-.25-.3-.12-.1-.31-.19-.57-.3-.26-.1-.61-.22-1.05-.35-.33-.1-.64-.21-.92-.33-.28-.12-.52-.27-.73-.44s-.37-.37-.48-.6-.18-.5-.18-.81c0-.21,.05-.43,.14-.67,.09-.24,.26-.47,.49-.68s.54-.38,.93-.52c.39-.14,.88-.21,1.46-.21,.29,0,.61,.02,.96,.05s.72,.09,1.1,.16v1.14c-.4-.1-.78-.17-1.14-.22-.36-.05-.67-.07-.93-.07-.32,0-.58,.02-.8,.07-.22,.05-.39,.12-.53,.2-.13,.09-.23,.19-.29,.3-.06,.12-.09,.24-.09,.37s.03,.25,.08,.36c.05,.11,.15,.21,.29,.31,.14,.1,.33,.2,.58,.3s.57,.21,.97,.33c.43,.13,.8,.26,1.1,.4,.3,.14,.54,.29,.73,.47s.32,.36,.4,.58c.08,.21,.12,.46,.12,.73Z"/><path d="M47.8,118h-1.42l-.67-2.09h-3.98l-.67,2.09h-1.35l3.18-9.57h1.79l3.13,9.57Zm-2.46-3.25l-1.62-5.12-1.62,5.12h3.24Z"/><path d="M51.55,108.7h-2.18v-1.05h3.46v9.29h2.19v1.06h-5.9v-1.06h2.42v-8.24Z"/><path d="M59.8,111.7h-2.18v-1.05h3.46v6.29h2.19v1.06h-5.9v-1.06h2.42v-5.24Zm.45-4.14c.14,0,.27,.03,.4,.08,.12,.05,.23,.12,.32,.22,.09,.09,.16,.2,.21,.32,.05,.12,.08,.25,.08,.39s-.03,.27-.08,.39c-.05,.12-.12,.23-.21,.32-.09,.09-.2,.16-.32,.22-.12,.05-.25,.08-.4,.08s-.27-.03-.4-.08c-.12-.05-.23-.12-.32-.22s-.16-.2-.21-.32c-.05-.12-.08-.25-.08-.39s.03-.27,.08-.39c.05-.12,.12-.23,.21-.32s.2-.16,.32-.22c.12-.05,.25-.08,.4-.08Z"/><path d="M64.85,110.65h1.45l1.8,4.86,.39,1.19,.4-1.22,1.79-4.83h1.4l-2.89,7.35h-1.46l-2.88-7.35Z"/><path d="M80,113.94c0,.18,0,.33,0,.45s-.01,.24-.02,.34h-5.16c0,.75,.21,1.33,.63,1.73,.42,.4,1.03,.6,1.82,.6,.21,0,.43,0,.64-.03,.21-.02,.42-.04,.62-.07s.39-.06,.58-.1c.18-.04,.35-.08,.51-.12v1.05c-.35,.1-.74,.18-1.18,.24-.44,.06-.89,.09-1.36,.09-.63,0-1.17-.09-1.63-.26s-.83-.42-1.12-.74c-.29-.32-.5-.72-.64-1.19-.14-.47-.21-1-.21-1.6,0-.52,.07-1.01,.22-1.47,.15-.46,.37-.87,.65-1.22,.29-.35,.64-.63,1.05-.83s.89-.31,1.41-.31,.97,.08,1.36,.24,.73,.39,1,.69c.27,.3,.48,.65,.62,1.08,.14,.42,.21,.9,.21,1.42Zm-1.33-.18c.01-.33-.02-.63-.1-.9-.08-.27-.2-.5-.36-.7-.16-.2-.37-.35-.61-.46-.24-.11-.53-.16-.85-.16-.28,0-.53,.05-.76,.16s-.43,.26-.59,.45-.3,.43-.4,.7-.17,.57-.19,.9h3.87Z"/></g><g><path d="M138.6,117.9c-.29,.07-.59,.13-.89,.16s-.62,.05-.94,.05c-.92,0-1.61-.21-2.07-.63-.45-.42-.68-1.06-.68-1.92v-3.84h-2.06v-1.07h2.06v-2.02l1.27-.33v2.35h3.3v1.07h-3.3v3.74c0,.53,.14,.92,.42,1.18,.28,.26,.69,.39,1.24,.39,.23,0,.49-.02,.77-.06,.28-.04,.57-.09,.87-.17v1.1Z"/><path d="M141.23,110.65h1.16l.04,1.35c.43-.52,.86-.9,1.29-1.14,.42-.23,.85-.35,1.28-.35,.76,0,1.34,.25,1.73,.74s.58,1.23,.55,2.2h-1.29c.01-.64-.08-1.11-.28-1.4-.2-.29-.5-.44-.89-.44-.17,0-.34,.03-.52,.09s-.35,.16-.53,.29c-.18,.13-.38,.31-.58,.52s-.42,.46-.66,.76v4.72h-1.29v-7.35Z"/><path d="M155.08,118h-1.14l-.04-1.19c-.22,.25-.43,.46-.63,.63-.2,.17-.39,.3-.59,.41s-.39,.17-.59,.22c-.2,.04-.41,.06-.63,.06-.76,0-1.33-.22-1.71-.67s-.58-1.12-.58-2.01v-4.8h1.27v4.7c0,1.13,.42,1.69,1.27,1.69,.16,0,.31-.02,.46-.07,.15-.05,.3-.13,.47-.24,.16-.11,.34-.27,.53-.47,.19-.2,.4-.44,.63-.74v-4.88h1.27v7.35Z"/><path d="M163.63,113.94c0,.18,0,.33,0,.45s-.01,.24-.02,.34h-5.16c0,.75,.21,1.33,.63,1.73,.42,.4,1.03,.6,1.82,.6,.21,0,.43,0,.64-.03,.21-.02,.42-.04,.62-.07s.39-.06,.58-.1c.18-.04,.35-.08,.51-.12v1.05c-.35,.1-.74,.18-1.18,.24-.44,.06-.89,.09-1.36,.09-.63,0-1.17-.09-1.63-.26s-.83-.42-1.12-.74c-.29-.32-.5-.72-.64-1.19-.14-.47-.21-1-.21-1.6,0-.52,.07-1.01,.22-1.47,.15-.46,.37-.87,.65-1.22,.29-.35,.64-.63,1.05-.83s.89-.31,1.41-.31,.97,.08,1.36,.24,.73,.39,1,.69c.27,.3,.48,.65,.62,1.08,.14,.42,.21,.9,.21,1.42Zm-1.33-.18c.01-.33-.02-.63-.1-.9-.08-.27-.2-.5-.36-.7-.16-.2-.37-.35-.61-.46-.24-.11-.53-.16-.85-.16-.28,0-.53,.05-.76,.16s-.43,.26-.59,.45-.3,.43-.4,.7-.17,.57-.19,.9h3.87Z"/></g><g><path d="M147.14,94h-6.31v-1.14l2.48-2.46c.41-.4,.73-.75,.99-1.04s.45-.56,.59-.8c.14-.24,.24-.47,.29-.69s.07-.45,.07-.7c0-.23-.03-.46-.1-.67-.06-.21-.16-.4-.29-.56s-.3-.29-.51-.38-.46-.14-.75-.14c-.41,0-.77,.09-1.11,.27s-.64,.42-.92,.7l-.7-.84c.36-.38,.78-.69,1.25-.92,.47-.23,1.02-.34,1.64-.34,.42,0,.81,.06,1.16,.19s.65,.31,.9,.55,.45,.53,.59,.88c.14,.35,.21,.74,.21,1.17,0,.37-.05,.71-.15,1.02s-.25,.62-.44,.93c-.2,.31-.45,.63-.75,.96-.3,.33-.66,.7-1.07,1.09l-1.74,1.69h4.65v1.22Z"/><path d="M155.6,89.22c0,.73-.07,1.4-.22,2s-.37,1.12-.67,1.55c-.3,.43-.67,.77-1.11,1-.44,.24-.96,.36-1.56,.36-.51,0-.98-.1-1.4-.29-.42-.19-.78-.49-1.08-.89s-.53-.91-.69-1.53-.24-1.35-.24-2.2c0-.73,.07-1.4,.22-2.01,.15-.61,.37-1.12,.67-1.56,.3-.43,.67-.77,1.11-1,.44-.24,.96-.35,1.55-.35,.51,0,.98,.1,1.4,.29s.78,.49,1.08,.89c.3,.4,.53,.91,.69,1.53s.24,1.35,.24,2.2Zm-5.67-.04c0,.15,0,.3,0,.45,0,.15,.01,.3,.03,.44l4.05-3c-.07-.25-.17-.48-.28-.68s-.25-.38-.4-.53-.33-.27-.53-.35-.42-.12-.67-.12c-.33,0-.63,.08-.9,.24-.27,.16-.5,.4-.69,.72-.19,.32-.34,.72-.44,1.19-.1,.47-.15,1.02-.15,1.64Zm4.38,.09c0-.17,0-.33-.02-.49-.01-.16-.03-.32-.04-.48l-4.05,3.01c.07,.25,.17,.49,.28,.7s.25,.4,.41,.55c.16,.15,.34,.27,.54,.36,.2,.09,.43,.13,.69,.13,.33,0,.63-.08,.9-.24,.27-.16,.5-.4,.69-.72s.34-.71,.44-1.18,.15-1.02,.15-1.64Z"/></g><g><path d="M57.68,18.17v-1.91h5.47v1.91h-5.47Z"/><path d="M67.58,18.17v-1.91h5.47v1.91h-5.47Z"/><path d="M84.22,18.53c0,.63-.12,1.17-.35,1.63s-.56,.85-.97,1.15-.91,.53-1.49,.67-1.2,.22-1.88,.22c-.6,0-1.19-.04-1.75-.11s-1.12-.19-1.67-.35v-2.14c.27,.09,.55,.18,.84,.26s.59,.15,.88,.22,.59,.11,.88,.15,.58,.05,.85,.05c.41,0,.76-.04,1.05-.11s.52-.17,.7-.29,.31-.27,.4-.44,.12-.36,.12-.56c0-.28-.08-.52-.24-.71s-.37-.36-.64-.51-.56-.28-.9-.4-.68-.24-1.03-.38-.69-.29-1.03-.46-.64-.38-.9-.63-.48-.55-.64-.9-.24-.77-.24-1.26c0-.45,.08-.88,.25-1.28s.42-.76,.77-1.06,.8-.54,1.35-.72,1.22-.27,2-.27c.23,0,.47,.01,.72,.03s.5,.05,.74,.08,.48,.07,.7,.11,.43,.09,.62,.14v1.98c-.19-.07-.39-.13-.62-.19s-.45-.11-.69-.15-.48-.08-.72-.1-.47-.04-.69-.04c-.38,0-.7,.03-.97,.09s-.48,.15-.65,.25-.29,.24-.37,.4-.11,.33-.11,.53c0,.24,.08,.45,.24,.62s.38,.33,.64,.47,.57,.27,.91,.39,.68,.25,1.04,.39,.7,.29,1.04,.47,.64,.39,.91,.64,.48,.55,.64,.89,.24,.75,.24,1.22Z"/><path d="M91.21,12.31v9.69h-2.21V12.31h-3.15v-1.8h8.51v1.8h-3.15Z"/><path d="M102.52,22l-.63-2.27h-4.01l-.65,2.27h-2.14l3.4-11.49h3.02l3.4,11.49h-2.39Zm-2.61-9.38l-1.51,5.34h3.01l-1.49-5.34Z"/><path d="M113.77,21.55c-.51,.21-1,.36-1.48,.46s-.97,.15-1.49,.15c-.83,0-1.56-.12-2.19-.36s-1.17-.6-1.61-1.09-.77-1.08-.99-1.79-.34-1.54-.34-2.48,.12-1.83,.37-2.58,.6-1.39,1.05-1.91,1.01-.91,1.67-1.19,1.39-.41,2.2-.41c.26,0,.51,0,.74,.02s.46,.03,.68,.07,.45,.07,.68,.13,.47,.12,.71,.2v2.14c-.5-.23-.97-.4-1.42-.5s-.86-.15-1.23-.15c-.54,0-1.01,.1-1.4,.29s-.7,.47-.95,.83-.43,.78-.55,1.27-.18,1.03-.18,1.61c0,.62,.06,1.18,.18,1.67s.31,.9,.56,1.24,.57,.6,.97,.78,.86,.27,1.4,.27c.19,0,.4-.02,.63-.06s.45-.09,.69-.15,.46-.13,.69-.22,.44-.17,.63-.26v2.02Z"/><path d="M121.63,22l-3.45-5.55v5.55h-2.2V10.51h2.2v5.23l3.44-5.23h2.61l-3.9,5.48,4.1,6.01h-2.79Z"/><path d="M126.96,18.17v-1.91h5.47v1.91h-5.47Z"/><path d="M136.85,18.17v-1.91h5.47v1.91h-5.47Z"/></g><g><path d="M434.63,18.17v-1.91h5.47v1.91h-5.47Z"/><path d="M444.52,18.17v-1.91h5.47v1.91h-5.47Z"/><path d="M459.1,22v-5h-3.9v5h-2.16V10.51h2.16v4.61h3.9v-4.61h2.16v11.49h-2.16Z"/><path d="M463.72,22V10.51h6.92v1.83h-4.72v2.86h4.5v1.78h-4.5v3.19h4.72v1.83h-6.92Z"/><path d="M479.47,22l-.63-2.27h-4.01l-.65,2.27h-2.14l3.4-11.49h3.02l3.4,11.49h-2.39Zm-2.61-9.38l-1.51,5.34h3.01l-1.49-5.34Z"/><path d="M491.05,14.17c0,.6-.1,1.15-.3,1.66s-.49,.94-.89,1.31-.88,.66-1.47,.86-1.27,.31-2.04,.31h-1.1v3.69h-2.18V10.51h3.37c.74,0,1.4,.08,1.97,.24s1.05,.4,1.44,.71,.69,.69,.89,1.15,.3,.97,.3,1.56Zm-2.27,.15c0-.3-.05-.58-.14-.83s-.24-.46-.44-.64-.44-.31-.74-.4-.65-.14-1.06-.14h-1.13v4.21h1.2c.38,0,.71-.05,.99-.15s.53-.25,.72-.44,.35-.42,.45-.69,.15-.57,.15-.91Z"/><path d="M494.01,18.17v-1.91h5.47v1.91h-5.47Z"/><path d="M503.9,18.17v-1.91h5.47v1.91h-5.47Z"/></g><g><rect x="267" y="51" width="98" height="26"/><path d="M364,52v24h-96v-24h96m2-2h-100v28h100v-28h0Z"/></g><g><rect x="339" y="123" width="122" height="26"/><path d="M460,124v24h-120v-24h120m2-2h-124v28h124v-28h0Z"/></g><g><polygon points="507 101 507 77 483 77 483 51 557 51 557 75 629 75 629 101 507 101"/><path d="M556,52v24h72v24h-120v-24h-24v-24h72m2-2h-76v28h24v24h124v-28h-72v-24h0Z"/></g><g><path class="b" d="M370.1,142h-5.51v-9.57h1.33v8.46h4.18v1.11Z"/><path class="b" d="M374.81,135.7h-2.18v-1.05h3.46v6.29h2.19v1.06h-5.9v-1.06h2.42v-5.24Zm.45-4.14c.14,0,.27,.03,.4,.08,.12,.05,.23,.12,.32,.22,.09,.09,.16,.2,.21,.32,.05,.12,.08,.25,.08,.39s-.03,.27-.08,.39c-.05,.12-.12,.23-.21,.32-.09,.09-.2,.16-.32,.22-.12,.05-.25,.08-.4,.08s-.27-.03-.4-.08c-.12-.05-.23-.12-.32-.22s-.16-.2-.21-.32c-.05-.12-.08-.25-.08-.39s.03-.27,.08-.39c.05-.12,.12-.23,.21-.32s.2-.16,.32-.22c.12-.05,.25-.08,.4-.08Z"/><path class="b" d="M386.38,139.99c0,.26-.04,.49-.13,.7s-.21,.39-.36,.55c-.15,.16-.33,.29-.53,.41s-.41,.21-.64,.28c-.23,.07-.46,.13-.7,.16s-.47,.05-.7,.05c-.5,0-.96-.02-1.37-.07-.42-.04-.83-.11-1.23-.21v-1.17c.43,.12,.86,.21,1.28,.28s.85,.1,1.27,.1c.61,0,1.06-.08,1.35-.25s.44-.4,.44-.71c0-.13-.02-.25-.07-.36-.05-.1-.13-.21-.25-.3-.12-.1-.31-.19-.57-.3-.26-.1-.61-.22-1.05-.35-.33-.1-.64-.21-.92-.33-.28-.12-.52-.27-.73-.44s-.37-.37-.48-.6-.18-.5-.18-.81c0-.21,.05-.43,.14-.67,.09-.24,.26-.47,.49-.68s.54-.38,.93-.52c.39-.14,.88-.21,1.46-.21,.29,0,.61,.02,.96,.05s.72,.09,1.1,.16v1.14c-.4-.1-.78-.17-1.14-.22-.36-.05-.67-.07-.93-.07-.32,0-.58,.02-.8,.07-.22,.05-.39,.12-.53,.2-.13,.09-.23,.19-.29,.3-.06,.12-.09,.24-.09,.37s.03,.25,.08,.36c.05,.11,.15,.21,.29,.31,.14,.1,.33,.2,.58,.3s.57,.21,.97,.33c.43,.13,.8,.26,1.1,.4,.3,.14,.54,.29,.73,.47s.32,.36,.4,.58c.08,.21,.12,.46,.12,.73Z"/><path class="b" d="M394.73,141.9c-.29,.07-.59,.13-.89,.16s-.62,.05-.94,.05c-.92,0-1.61-.21-2.07-.63-.45-.42-.68-1.06-.68-1.92v-3.84h-2.06v-1.07h2.06v-2.02l1.27-.33v2.35h3.3v1.07h-3.3v3.74c0,.53,.14,.92,.42,1.18,.28,.26,.69,.39,1.24,.39,.23,0,.49-.02,.77-.06,.28-.04,.57-.09,.87-.17v1.1Z"/><path class="b" d="M402.6,141.31l-.8,.81-4.92-4.11,4.92-4.11,.8,.81-3.99,3.28,3.99,3.32Z"/><path class="b" d="M407.8,135.7h-2.18v-1.05h3.46v6.29h2.19v1.06h-5.9v-1.06h2.42v-5.24Zm.45-4.14c.14,0,.27,.03,.4,.08,.12,.05,.23,.12,.32,.22,.09,.09,.16,.2,.21,.32,.05,.12,.08,.25,.08,.39s-.03,.27-.08,.39c-.05,.12-.12,.23-.21,.32-.09,.09-.2,.16-.32,.22-.12,.05-.25,.08-.4,.08s-.27-.03-.4-.08c-.12-.05-.23-.12-.32-.22s-.16-.2-.21-.32c-.05-.12-.08-.25-.08-.39s.03-.27,.08-.39c.05-.12,.12-.23,.21-.32s.2-.16,.32-.22c.12-.05,.25-.08,.4-.08Z"/><path class="b" d="M413.54,134.65h1.14l.05,1.19c.21-.25,.42-.46,.62-.63,.2-.17,.4-.3,.59-.41s.39-.17,.59-.22,.41-.06,.62-.06c.76,0,1.33,.22,1.72,.67,.39,.45,.58,1.12,.58,2.02v4.8h-1.27v-4.69c0-.58-.11-1-.32-1.28s-.53-.41-.96-.41c-.16,0-.31,.02-.46,.07-.15,.05-.3,.13-.46,.24s-.34,.27-.52,.46c-.19,.2-.4,.44-.63,.73v4.88h-1.27v-7.35Z"/><path class="b" d="M427.71,141.9c-.29,.07-.59,.13-.89,.16s-.62,.05-.94,.05c-.92,0-1.61-.21-2.07-.63-.45-.42-.68-1.06-.68-1.92v-3.84h-2.06v-1.07h2.06v-2.02l1.27-.33v2.35h3.3v1.07h-3.3v3.74c0,.53,.14,.92,.42,1.18,.28,.26,.69,.39,1.24,.39,.23,0,.49-.02,.77-.06,.28-.04,.57-.09,.87-.17v1.1Z"/><path class="b" d="M430.4,134.71l.79-.81,4.92,4.11-4.92,4.11-.79-.81,3.99-3.29-3.99-3.31Z"/></g><g><path class="b" d="M299.18,60.43l-.64,9.57h-1.69l-1.19-3.41-.33-1.09-.34,1.18-1.1,3.32h-1.63l-.66-9.57h1.23l.37,6.51,.11,1.79,.46-1.52,1.16-3.55h.9l1.33,3.81,.45,1.26,.03-1.32,.38-6.98h1.16Z"/><path class="b" d="M306.89,65.94c0,.18,0,.33,0,.45s-.01,.24-.02,.34h-5.16c0,.75,.21,1.33,.63,1.73,.42,.4,1.03,.6,1.82,.6,.21,0,.43,0,.64-.03,.21-.02,.42-.04,.62-.07s.39-.06,.58-.1c.18-.04,.35-.08,.51-.12v1.05c-.35,.1-.74,.18-1.18,.24-.44,.06-.89,.09-1.36,.09-.63,0-1.17-.09-1.63-.26s-.83-.42-1.12-.74c-.29-.32-.5-.72-.64-1.19-.14-.47-.21-1-.21-1.6,0-.52,.07-1.01,.22-1.47,.15-.46,.37-.87,.65-1.22,.29-.35,.64-.63,1.05-.83s.89-.31,1.41-.31,.97,.08,1.36,.24,.73,.39,1,.69c.27,.3,.48,.65,.62,1.08,.14,.42,.21,.9,.21,1.42Zm-1.33-.18c.01-.33-.02-.63-.1-.9-.08-.27-.2-.5-.36-.7-.16-.2-.37-.35-.61-.46-.24-.11-.53-.16-.85-.16-.28,0-.53,.05-.76,.16s-.43,.26-.59,.45-.3,.43-.4,.7-.17,.57-.19,.9h3.87Z"/><path class="b" d="M313.65,70l-.03-.99c-.4,.4-.81,.68-1.22,.86-.41,.18-.85,.26-1.3,.26-.42,0-.78-.05-1.08-.16s-.54-.25-.74-.44c-.19-.19-.33-.41-.42-.66s-.14-.53-.14-.83c0-.74,.27-1.31,.82-1.73,.55-.42,1.36-.63,2.44-.63h1.52v-.64c0-.43-.14-.78-.42-1.04-.28-.26-.7-.39-1.27-.39-.42,0-.82,.05-1.23,.14-.4,.09-.82,.22-1.25,.4v-1.15c.16-.06,.34-.12,.54-.17,.2-.06,.41-.11,.63-.15s.45-.08,.69-.11c.24-.03,.48-.04,.73-.04,.44,0,.84,.05,1.2,.15s.66,.25,.9,.45c.25,.2,.44,.45,.57,.75s.2,.66,.2,1.07v5.07h-1.14Zm-.14-3.35h-1.62c-.32,0-.59,.03-.82,.1s-.42,.15-.56,.27-.26,.26-.33,.42-.11,.35-.11,.55c0,.14,.02,.28,.07,.41,.04,.13,.11,.24,.21,.34s.22,.18,.38,.24,.35,.09,.57,.09c.29,0,.63-.09,1.01-.27,.38-.18,.78-.46,1.2-.85v-1.3Z"/><path class="b" d="M323.46,66.19c0,.65-.09,1.23-.27,1.71-.18,.49-.44,.89-.76,1.22s-.7,.56-1.14,.73-.92,.24-1.43,.24c-.23,0-.47-.01-.7-.04-.23-.02-.47-.07-.71-.12v3.08h-1.27v-10.36h1.14l.08,1.23c.37-.5,.76-.86,1.17-1.06,.42-.2,.86-.3,1.35-.3,.42,0,.79,.09,1.11,.26s.58,.42,.8,.74c.21,.32,.38,.71,.48,1.16,.11,.45,.16,.96,.16,1.51Zm-1.3,.06c0-.39-.03-.74-.08-1.06-.06-.32-.15-.6-.27-.83s-.28-.41-.47-.54-.42-.19-.68-.19c-.16,0-.32,.03-.49,.08-.17,.05-.34,.14-.52,.26-.18,.12-.37,.28-.56,.48-.2,.2-.41,.44-.63,.74v3.57c.23,.1,.48,.17,.74,.23,.26,.06,.51,.08,.76,.08,.69,0,1.23-.23,1.62-.7,.39-.47,.59-1.17,.59-2.11Z"/><path class="b" d="M331.82,66.26c0,.57-.08,1.09-.24,1.57-.16,.48-.39,.88-.7,1.22-.3,.34-.67,.6-1.11,.79-.43,.19-.93,.28-1.48,.28s-1-.08-1.42-.25c-.42-.16-.77-.4-1.06-.72-.29-.32-.51-.71-.67-1.18-.15-.47-.23-1.01-.23-1.62,0-.57,.08-1.09,.24-1.56s.39-.88,.7-1.22,.67-.6,1.11-.79,.93-.28,1.48-.28,1,.08,1.42,.25c.42,.16,.77,.4,1.06,.72,.29,.32,.51,.71,.67,1.18,.15,.47,.23,1.01,.23,1.61Zm-1.3,.06c0-.45-.05-.85-.15-1.19-.1-.34-.24-.62-.43-.85-.19-.23-.41-.4-.68-.51-.27-.11-.56-.17-.89-.17-.38,0-.71,.07-.98,.22-.27,.15-.49,.35-.67,.6-.17,.25-.3,.54-.38,.87-.08,.33-.12,.67-.12,1.04,0,.45,.05,.85,.15,1.19,.1,.34,.24,.63,.43,.85,.19,.23,.41,.4,.67,.51,.26,.12,.56,.17,.89,.17,.38,0,.71-.07,.98-.22,.27-.15,.49-.35,.67-.6s.3-.54,.38-.87c.08-.33,.12-.68,.12-1.04Z"/><path class="b" d="M333.67,62.65h1.14l.05,1.19c.21-.25,.42-.46,.62-.63,.2-.17,.4-.3,.59-.41s.39-.17,.59-.22,.41-.06,.62-.06c.76,0,1.33,.22,1.72,.67,.39,.45,.58,1.12,.58,2.02v4.8h-1.27v-4.69c0-.58-.11-1-.32-1.28s-.53-.41-.96-.41c-.16,0-.31,.02-.46,.07-.15,.05-.3,.13-.46,.24s-.34,.27-.52,.46c-.19,.2-.4,.44-.63,.73v4.88h-1.27v-7.35Z"/></g><g><path class="b" d="M534.13,86.07c-.36-.19-.72-.34-1.1-.44s-.79-.16-1.23-.16c-.51,0-.96,.09-1.35,.27-.4,.18-.73,.44-1,.77-.27,.33-.48,.73-.62,1.19s-.22,.98-.22,1.54,.06,1.11,.18,1.57,.3,.86,.55,1.18c.25,.32,.57,.57,.96,.74,.39,.17,.85,.26,1.4,.26,.09,0,.19,0,.3-.01s.21-.02,.32-.04c.11-.02,.21-.04,.31-.06s.19-.05,.27-.08v-3.05h-1.96v-1.08h3.25v4.89c-.2,.09-.41,.18-.63,.25s-.45,.13-.68,.18c-.23,.05-.46,.09-.69,.11s-.45,.04-.67,.04c-.65,0-1.24-.1-1.77-.31s-.97-.51-1.34-.91c-.37-.4-.65-.9-.85-1.5-.2-.6-.3-1.3-.3-2.09s.11-1.49,.33-2.11c.22-.62,.53-1.15,.93-1.58,.4-.43,.88-.76,1.44-.99,.56-.23,1.18-.34,1.85-.34,.43,0,.84,.04,1.23,.11,.39,.08,.76,.2,1.12,.36v1.3Z"/><path class="b" d="M540.91,94l-.03-.99c-.4,.4-.81,.68-1.22,.86-.41,.18-.85,.26-1.3,.26-.42,0-.78-.05-1.08-.16s-.54-.25-.74-.44c-.19-.19-.33-.41-.42-.66s-.13-.53-.13-.83c0-.74,.27-1.31,.82-1.73,.55-.42,1.36-.63,2.44-.63h1.52v-.64c0-.43-.14-.78-.42-1.04-.28-.26-.7-.39-1.28-.39-.41,0-.82,.05-1.23,.14-.4,.09-.82,.22-1.25,.4v-1.15c.16-.06,.34-.12,.54-.17,.2-.06,.41-.11,.63-.15s.45-.08,.69-.11c.24-.03,.48-.04,.73-.04,.44,0,.84,.05,1.2,.15,.36,.1,.66,.25,.9,.45,.25,.2,.44,.45,.57,.75s.2,.66,.2,1.07v5.07h-1.14Zm-.14-3.35h-1.62c-.32,0-.59,.03-.82,.1-.23,.06-.42,.15-.56,.27s-.26,.26-.33,.42-.11,.35-.11,.55c0,.14,.02,.28,.07,.41,.04,.13,.11,.24,.21,.34s.22,.18,.38,.24,.35,.09,.57,.09c.29,0,.63-.09,1.01-.27,.38-.18,.78-.46,1.2-.85v-1.3Z"/><path class="b" d="M549.67,94v-5.28c0-.23,0-.42-.03-.56-.02-.15-.04-.26-.08-.35-.04-.09-.08-.15-.14-.18-.06-.03-.13-.05-.21-.05-.1,0-.19,.03-.27,.09-.08,.06-.17,.15-.27,.29-.1,.13-.2,.31-.32,.52-.12,.22-.25,.48-.41,.8v4.72h-1.16v-5.14c0-.27,0-.49-.03-.65s-.04-.3-.08-.39c-.04-.09-.08-.16-.14-.19s-.13-.05-.21-.05c-.09,0-.17,.02-.25,.07s-.17,.14-.26,.26c-.1,.13-.2,.3-.32,.52s-.26,.5-.42,.84v4.72h-1.17v-7.35h.97l.06,1.4c.13-.28,.25-.52,.37-.71s.24-.35,.37-.47c.13-.12,.26-.21,.41-.26,.14-.06,.3-.08,.48-.08,.4,0,.7,.13,.9,.39s.31,.66,.31,1.2c.12-.25,.23-.48,.34-.68,.11-.2,.23-.36,.36-.5,.13-.13,.27-.24,.43-.31s.34-.11,.54-.11c.92,0,1.38,.71,1.38,2.13v5.35h-1.17Z"/><path class="b" d="M558.89,89.94c0,.18,0,.33,0,.45,0,.12-.01,.24-.02,.34h-5.16c0,.75,.21,1.33,.63,1.73,.42,.4,1.03,.6,1.82,.6,.21,0,.43,0,.64-.03,.21-.02,.42-.04,.62-.07s.39-.06,.58-.1c.18-.04,.35-.08,.51-.12v1.05c-.35,.1-.74,.18-1.18,.24-.44,.06-.89,.09-1.36,.09-.63,0-1.17-.09-1.63-.26s-.83-.42-1.12-.74c-.29-.32-.5-.72-.64-1.19-.14-.47-.21-1-.21-1.6,0-.52,.07-1.01,.22-1.47,.15-.46,.37-.87,.65-1.22,.29-.35,.64-.63,1.05-.83s.89-.31,1.41-.31,.97,.08,1.36,.24c.4,.16,.73,.39,1,.69,.27,.3,.48,.65,.62,1.08,.14,.42,.21,.9,.21,1.42Zm-1.33-.18c.02-.33-.02-.63-.09-.9-.08-.27-.2-.5-.36-.7-.16-.2-.37-.35-.61-.46-.24-.11-.53-.16-.85-.16-.28,0-.53,.05-.76,.16-.23,.11-.43,.26-.59,.45s-.3,.43-.4,.7c-.1,.27-.17,.57-.19,.9h3.87Z"/><path class="b" d="M567.6,89.15c0,.86-.1,1.6-.3,2.23s-.48,1.14-.82,1.55c-.34,.41-.75,.71-1.21,.91-.46,.2-.95,.3-1.46,.3-.62,0-1.15-.11-1.61-.33-.46-.22-.83-.54-1.13-.96-.3-.42-.52-.93-.67-1.53-.15-.6-.22-1.28-.22-2.04,0-.85,.1-1.59,.3-2.21s.47-1.14,.82-1.55c.34-.41,.75-.71,1.21-.91,.46-.2,.95-.3,1.46-.3,.62,0,1.15,.11,1.61,.34,.46,.22,.84,.55,1.14,.96,.3,.42,.53,.93,.68,1.53,.15,.6,.22,1.28,.22,2.03Zm-1.36,.1c0-.56-.04-1.08-.13-1.54-.09-.47-.22-.87-.41-1.21s-.44-.6-.74-.78c-.3-.19-.66-.28-1.09-.28s-.76,.1-1.06,.3c-.3,.2-.54,.47-.73,.81-.19,.34-.33,.74-.43,1.19-.09,.46-.14,.94-.14,1.45,0,.57,.04,1.08,.13,1.55s.23,.87,.41,1.2c.19,.33,.43,.59,.73,.78s.66,.28,1.08,.28,.76-.1,1.06-.3c.3-.2,.54-.47,.74-.81,.19-.34,.33-.74,.43-1.19,.09-.45,.14-.94,.14-1.46Z"/><path class="b" d="M575.46,90.19c0,.61-.08,1.16-.25,1.64-.17,.48-.41,.89-.72,1.22s-.69,.59-1.13,.77c-.44,.18-.94,.27-1.5,.27-.43,0-.88-.04-1.33-.12s-.9-.21-1.35-.4v-9.92h1.27v2.85l-.06,1.36c.37-.49,.76-.84,1.18-1.04,.42-.2,.87-.3,1.34-.3,.42,0,.79,.09,1.11,.26,.32,.18,.58,.42,.8,.74,.21,.32,.38,.71,.48,1.16,.11,.45,.16,.96,.16,1.51Zm-1.3,.06c0-.39-.03-.74-.08-1.06-.06-.32-.15-.6-.27-.83s-.28-.41-.47-.54-.42-.19-.68-.19c-.16,0-.32,.03-.49,.08-.17,.05-.34,.14-.52,.26-.18,.12-.37,.28-.56,.48-.2,.2-.41,.44-.63,.74v3.57c.25,.1,.5,.17,.76,.23,.26,.06,.5,.08,.74,.08,.29,0,.57-.05,.84-.14s.5-.25,.7-.46,.36-.51,.48-.86c.12-.36,.18-.8,.18-1.34Z"/><path class="b" d="M582.4,86.65v7.22c0,.51-.07,.97-.22,1.37-.15,.4-.36,.73-.63,1.01s-.61,.48-1.01,.62c-.4,.14-.85,.21-1.34,.21-.36,0-.71-.03-1.06-.1-.34-.07-.66-.16-.93-.27v-1.22c.15,.08,.31,.15,.49,.21s.35,.12,.54,.16c.18,.04,.37,.08,.55,.1,.19,.02,.37,.03,.54,.03,.56,0,.99-.18,1.31-.53,.32-.35,.48-.87,.48-1.55v-6.21h-3.6v-1.05h4.89Zm-.77-3.08c.14,0,.27,.03,.39,.08,.12,.05,.23,.12,.32,.22,.09,.09,.16,.2,.21,.32,.05,.12,.08,.25,.08,.39s-.03,.27-.08,.39c-.05,.12-.12,.23-.21,.32-.09,.09-.2,.16-.32,.22-.12,.05-.25,.08-.39,.08s-.27-.03-.4-.08c-.12-.05-.23-.12-.32-.22s-.16-.2-.21-.32c-.05-.12-.08-.25-.08-.39s.03-.27,.08-.39c.05-.12,.12-.23,.21-.32s.2-.16,.32-.22c.12-.05,.25-.08,.4-.08Z"/><path class="b" d="M591.88,89.94c0,.18,0,.33,0,.45,0,.12-.01,.24-.02,.34h-5.16c0,.75,.21,1.33,.63,1.73,.42,.4,1.03,.6,1.82,.6,.21,0,.43,0,.64-.03,.21-.02,.42-.04,.62-.07s.39-.06,.58-.1c.18-.04,.35-.08,.51-.12v1.05c-.35,.1-.74,.18-1.18,.24-.44,.06-.89,.09-1.36,.09-.63,0-1.17-.09-1.63-.26s-.83-.42-1.12-.74c-.29-.32-.5-.72-.64-1.19-.14-.47-.21-1-.21-1.6,0-.52,.07-1.01,.22-1.47,.15-.46,.37-.87,.65-1.22,.29-.35,.64-.63,1.05-.83s.89-.31,1.41-.31,.97,.08,1.36,.24c.4,.16,.73,.39,1,.69,.27,.3,.48,.65,.62,1.08,.14,.42,.21,.9,.21,1.42Zm-1.33-.18c.02-.33-.02-.63-.09-.9-.08-.27-.2-.5-.36-.7-.16-.2-.37-.35-.61-.46-.24-.11-.53-.16-.85-.16-.28,0-.53,.05-.76,.16-.23,.11-.43,.26-.59,.45s-.3,.43-.4,.7c-.1,.27-.17,.57-.19,.9h3.87Z"/><path class="b" d="M599.63,93.73c-.33,.13-.67,.22-1.02,.28-.35,.06-.71,.09-1.08,.09-1.16,0-2.06-.31-2.68-.94-.63-.63-.94-1.55-.94-2.76,0-.58,.09-1.11,.27-1.58,.18-.47,.43-.88,.76-1.22,.33-.34,.72-.6,1.17-.78,.45-.18,.95-.27,1.5-.27,.38,0,.74,.03,1.07,.08s.65,.14,.95,.26v1.22c-.32-.17-.64-.29-.97-.36-.33-.08-.67-.11-1.02-.11-.33,0-.64,.06-.93,.19-.29,.12-.54,.3-.77,.54-.22,.23-.39,.52-.52,.86s-.19,.72-.19,1.14c0,.89,.22,1.55,.65,2,.43,.44,1.03,.66,1.8,.66,.35,0,.68-.04,1.01-.12s.64-.2,.94-.35v1.19Z"/><path class="b" d="M608.09,93.9c-.29,.07-.59,.13-.89,.16-.31,.03-.62,.05-.94,.05-.92,0-1.61-.21-2.06-.63-.46-.42-.68-1.06-.68-1.92v-3.84h-2.06v-1.07h2.06v-2.02l1.27-.33v2.35h3.3v1.07h-3.3v3.74c0,.53,.14,.92,.42,1.18,.28,.26,.7,.39,1.24,.39,.23,0,.49-.02,.77-.06,.28-.04,.57-.09,.87-.17v1.1Z"/></g></svg>